Coordinates
version=1
nRows=7
nColumns=46
inDegrees=yes

Units are S.I. units (second, meters, Newtons, ...)
Angles are in degrees.

endheader
time	pelvis_tilt	pelvis_list	pelvis_rotation	pelvis_tx	pelvis_ty	pelvis_tz	bb_angle	bb_tx	bb_ty	bb_tz	hip_flexion_r	hip_adduction_r	hip_rotation_r	knee_angle_r	knee_angle_r_beta	ankle_angle_r	subtalar_angle_r	mtp_angle_r	crank_angle_r	hip_flexion_l	hip_adduction_l	hip_rotation_l	knee_angle_l	knee_angle_l_beta	ankle_angle_l	subtalar_angle_l	mtp_angle_l	crank_angle_l	lumbar_extension	lumbar_bending	lumbar_rotation	arm_flex_r	arm_add_r	arm_rot_r	elbow_flex_r	pro_sup_r	wrist_flex_r	wrist_dev_r	arm_flex_l	arm_add_l	arm_rot_l	elbow_flex_l	pro_sup_l	wrist_flex_l	wrist_dev_l
      2.50000000	    -16.57114898	     -3.34146954	     -1.26465935	      0.16448823	      1.15266689	     -0.22580818	      0.00000000	      0.50000000	      0.00000000	      0.25000000	     62.85927243	      1.01130962	      3.42180043	     91.98814979	      1.60549609	     -0.71082690	     -9.19432546	      0.00000000	      0.00000000	     50.74045030	     -6.41475772	      7.09546680	     33.51643046	      0.58497207	     -8.38405315	     -6.86292105	      0.00000000	      0.00000000	    -61.76849575	     -8.18785351	     -7.05718531	     78.98991893	    -13.11833976	     37.44183239	     53.44844267	     48.56761982	      0.00000000	      0.00000000	     82.12407088	    -20.18628936	     28.22345452	     69.41432429	     42.75733673	      0.00000000	      0.00000000
      2.50500000	    -16.12753194	     -3.80989981	     -1.63396911	      0.16578084	      1.15315108	     -0.22645600	      0.00000000	      0.50000000	      0.00000000	      0.25000000	     63.17928190	      1.43372569	      3.16830945	     93.13354347	      1.62548698	     -0.36124360	     -8.84208592	      0.00000000	      0.00000000	     49.36859432	     -7.16338641	      6.80856098	     32.28750509	      0.56352327	     -9.41094941	     -6.11650161	      0.00000000	      0.00000000	    -61.64541027	     -7.82047918	     -6.22253699	     79.35905421	    -12.67678750	     37.89565114	     51.99861854	     48.50303603	      0.00000000	      0.00000000	     81.52056766	    -19.86194115	     27.77162194	     68.39525348	     42.81992252	      0.00000000	      0.00000000
      2.51000000	    -15.86170817	     -4.30309128	     -2.02736362	      0.16690877	      1.15324106	     -0.22695828	      0.00000000	      0.50000000	      0.00000000	      0.25000000	     63.71882887	      1.90804743	      2.87211033	     94.26184669	      1.64517958	     -0.07013604	     -8.69601464	      0.00000000	      0.00000000	     48.22724251	     -7.94245827	      6.52861268	     31.13356859	      0.54338328	    -10.46292215	     -5.42623067	      0.00000000	      0.00000000	    -61.41098068	     -7.37870720	     -5.27703832	     79.40416371	    -12.59302856	     37.95334026	     51.82625099	     48.49793415	      0.00000000	      0.00000000	     80.83315815	    -20.05507738	     27.84333509	     68.10166838	     42.82344403	      0.00000000	      0.00000000
      2.51500000	    -15.58016100	     -4.77093999	     -2.38794080	      0.16801939	      1.15345538	     -0.22745800	      0.00000000	      0.50000000	      0.00000000	      0.25000000	     64.23106526	      2.37071852	      2.62959894	     95.34052606	      1.66400609	      0.26113613	     -8.53298247	      0.00000000	      0.00000000	     47.05559508	     -8.69995509	      6.16720903	     29.96450043	      0.52297919	    -11.51875174	     -4.64365182	      0.00000000	      0.00000000	    -61.22987477	     -6.93116149	     -4.28169720	     79.43196549	    -12.55802878	     38.00260248	     51.50569467	     48.46517686	      0.00000000	      0.00000000	     80.19694652	    -20.10096730	     27.95043579	     67.75757164	     42.81752133	      0.00000000	      0.00000000
      2.52000000	    -14.96523251	     -5.10452896	     -2.84905702	      0.16919716	      1.15423403	     -0.22792420	      0.00000000	      0.50000000	      0.00000000	      0.25000000	     64.38169862	      2.81906949	      2.54088237	     96.38005628	      1.68214932	      0.70497845	     -8.14133003	      0.00000000	      0.00000000	     45.44502760	     -9.44435823	      5.49732073	     28.79030152	      0.50248555	    -12.37488132	     -3.71096822	      0.00000000	      0.00000000	    -61.28935962	     -6.78250775	     -3.07525853	     79.87419947	    -12.65268579	     38.45186035	     49.86635169	     48.39672745	      0.00000000	      0.00000000	     80.11478681	    -18.98391893	     28.03907368	     65.70870401	     42.82555726	      0.00000000	      0.00000000
      2.52500000	    -14.77931212	     -5.47045585	     -3.14483240	      0.17012465	      1.15421095	     -0.22879290	      0.00000000	      0.50000000	      0.00000000	      0.25000000	     65.03023330	      3.09192457	      2.29294114	     97.40573202	      1.70005073	      1.01978932	     -8.07596396	      0.00000000	      0.00000000	     44.41532711	    -10.02696864	      5.12472693	     27.72862948	      0.48395588	    -13.45592767	     -2.94103973	      0.00000000	      0.00000000	    -61.06110458	     -6.25545370	     -2.19722787	     79.95283064	    -12.70131586	     38.45409685	     49.77477889	     48.39378876	      0.00000000	      0.00000000	     79.48865673	    -19.10466348	     28.18495495	     65.41910503	     42.82870148	      0.00000000	      0.00000000
      2.53000000	    -14.54080776	     -5.82857353	     -3.47548894	      0.17102433	      1.15440363	     -0.22938968	      0.00000000	      0.50000000	      0.00000000	      0.25000000	     65.57389385	      3.48549057	      2.12127699	     98.36138638	      1.71673005	      1.44906942	     -7.94783915	      0.00000000	      0.00000000	     43.28153585	    -10.65210779	      4.68284203	     26.59359345	      0.46414577	    -14.63413262	     -2.07244945	      0.00000000	      0.00000000	    -60.87972397	     -5.84577518	     -1.25779197	     80.05523562	    -12.86099311	     38.43087022	     49.51999954	     48.36159049	      0.00000000	      0.00000000	     78.89008712	    -19.06287913	     28.41271584	     65.02392480	     42.82569219	      0.00000000	      0.00000000
